<svg width="45" height="52" viewBox="0 0 45 52" fill="none" xmlns="http://www.w3.org/2000/svg">
<path d="M41.51 34.9687C41.9493 35.7368 41.883 36.473 41.0942 37.5757C40.9089 37.8348 40.8611 38.0671 40.9044 38.4203L40.9086 38.4528C40.9227 38.5576 40.9392 38.648 40.9741 38.8093L41.0554 39.1765L41.0812 39.2976C41.1346 39.5542 41.1626 39.7335 41.1785 39.939L41.1824 39.9943C41.2104 40.4197 41.1631 40.8221 41.0203 41.2227C40.7107 42.0914 39.9746 42.8753 38.7154 43.6576L38.6162 43.7186C38.0038 44.091 37.3513 44.3684 36.6437 44.5719L36.5337 44.603C35.7473 44.822 35.1308 44.9134 33.8167 45.043L33.345 45.089C31.9391 45.2304 31.3469 45.3694 30.8733 45.7073L30.8546 45.7209C30.2882 46.137 29.9797 46.9185 29.9667 48.3559L29.9661 48.493C29.9537 49.771 29.3678 50.7602 28.2622 51.3483C27.258 51.8825 25.8459 52.0784 24.012 51.9722C20.5206 51.77 15.3605 50.4564 8.49876 48.0352L7.67581 47.7448L8.02606 46.9456C9.86213 42.7561 9.07559 37.8049 5.58801 32.0358L4.57697 30.3603C3.56997 28.6862 3.16391 27.9847 2.66566 27.0625L2.49308 26.7411L2.39857 26.5628C1.52612 24.907 0.922618 23.4868 0.530217 22.1039C-0.7637 17.5437 0.254432 13.1777 4.20497 7.12461C9.07059 -0.330555 17.9961 -1.90908 30.7681 2.26747C37.4757 4.5276 40.8611 9.79228 40.8611 17.8732V18.0588L40.7803 18.226C39.9038 20.0386 39.9038 21.5211 40.728 22.7759C41.0039 23.196 41.3356 23.6446 41.8104 24.2498L41.9863 24.4729L42.6765 25.3423C43.3955 26.2519 43.685 26.6434 43.9971 27.1372L44.0804 27.2705L44.1279 27.3486C44.7045 28.3066 44.9232 29.0791 44.6413 29.7934C44.4514 30.2746 44.0761 30.6332 43.557 30.9189C43.1983 31.1164 42.7922 31.2713 42.24 31.441L42.116 31.4784C41.9392 31.5312 41.6686 31.6106 41.521 31.6543L41.3943 31.6924L41.3249 31.7139C41.1902 31.7562 41.0792 31.794 40.9885 31.8286L41.0256 31.8825C41.0612 31.9335 41.1039 31.9934 41.1549 32.0637L41.2386 32.1785L41.2922 32.2528C41.5609 32.6283 41.7022 32.8788 41.7979 33.2109C41.9541 33.7528 41.8696 34.2992 41.5226 34.8037L41.5019 34.8333C41.4944 34.8438 41.4875 34.8538 41.4812 34.8633L41.4639 34.89L41.51 34.9687ZM39.2369 17.4742C39.1314 10.2909 36.1559 5.79348 30.2572 3.80586C18.1147 -0.164776 9.95669 1.27803 5.56277 8.01044C1.8485 13.7015 0.938563 17.6036 2.08997 21.6615C2.45461 22.9466 3.03042 24.2935 3.87971 25.8957L4.0394 26.1943C4.58742 27.2122 4.99978 27.9218 6.21692 29.941L6.97556 31.1973C10.5016 37.03 11.4767 42.2417 9.83494 46.7853C16.1665 48.9816 20.9331 50.1701 24.1057 50.3539L24.2299 50.3606C25.7299 50.4359 26.8244 50.277 27.5006 49.9173C28.0727 49.6129 28.3364 49.1725 28.3447 48.4857L28.3451 48.3921C28.3552 46.4336 28.866 45.1481 29.9316 44.3878C30.3942 44.0577 30.9364 43.8434 31.5969 43.6997L31.659 43.6864C32.0615 43.6017 32.4485 43.5496 33.1047 43.4837L33.7037 43.4252C34.8951 43.307 35.4427 43.2245 36.1112 43.0379L36.1956 43.014C36.7699 42.8489 37.29 42.6277 37.7737 42.3336L37.8595 42.2809C38.8319 41.6773 39.3234 41.1547 39.4931 40.6786C39.6076 40.3573 39.5948 40.0852 39.4549 39.4478L39.3975 39.1892L39.3826 39.1205C39.3428 38.9347 39.3219 38.8184 39.3019 38.6698L39.2966 38.6295C39.2062 37.9064 39.3262 37.2778 39.7516 36.6667L39.7999 36.5983C39.9358 36.4053 40.031 36.2426 40.0905 36.1091C40.1315 36.0171 40.1507 35.951 40.156 35.9066L40.1569 35.8974C40.1586 35.8769 40.1574 35.8689 40.124 35.8104L40.0557 35.6934L40.0287 35.6463C39.7175 35.0935 39.7274 34.5483 40.1596 33.9238L40.1862 33.8859L40.1976 33.8688C40.2993 33.7102 40.26 33.5904 39.9374 33.1456L39.7607 32.9035L39.7033 32.8236C39.6444 32.7406 39.6104 32.6889 39.5685 32.6207L39.52 32.5401C39.3802 32.3013 39.289 32.0723 39.2542 31.8221C39.2447 31.7539 39.2398 31.6854 39.2398 31.6166C39.2398 31.1016 39.5394 30.7531 39.9902 30.5048C40.22 30.3782 40.4856 30.2771 40.871 30.1574L41.0139 30.1139C41.1414 30.076 41.4074 29.9979 41.5951 29.9421L41.7635 29.8916L41.8416 29.8673C42.6488 29.6129 43.0609 29.3816 43.1331 29.1984C43.1355 29.1925 43.138 29.1763 43.1373 29.1441C43.1351 29.0874 43.1212 29.0119 43.0926 28.9192C43.0278 28.7089 42.898 28.4435 42.7032 28.1261L42.6429 28.0293C42.3695 27.5947 42.1058 27.236 41.4519 26.4076L40.7147 25.4786L40.5707 25.2961L40.4468 25.1378C40.0166 24.5865 39.697 24.1533 39.4202 23.7374L39.3729 23.6658C38.2516 21.9589 38.2126 19.9595 39.2087 17.7594L39.2392 17.6927L39.2369 17.4742Z" fill="#FF6800"/>
<path fill-rule="evenodd" clip-rule="evenodd" d="M6.28186 31.6175C0.86294 22.6537 -2.0607 18.2092 4.88395 7.5685C9.51372 0.474712 18.0555 -1.03595 30.5093 3.0365C36.8701 5.17979 40.0505 10.1257 40.0505 17.8742C39.0576 19.9277 39.0576 21.7102 40.0505 23.2218C41.54 25.4893 44.3993 28.1995 43.8873 29.4969C43.3753 30.7943 40.0505 30.7943 40.0505 31.6175C40.0505 32.4408 41.6318 33.2522 40.8412 34.3649C40.0505 35.4776 41.7838 35.2196 40.435 37.1052C39.0861 38.9908 42.3099 40.5248 38.195 43.0271C34.0802 45.5294 29.1557 42.4395 29.1557 48.4527C29.1557 52.4614 22.36 52.0678 8.76864 47.2718C10.7234 42.8115 9.89448 37.5934 6.28186 31.6175Z" fill="#FFFCF0"/>
<path fill-rule="evenodd" clip-rule="evenodd" d="M37.9951 16.8356C37.0489 10.6644 35.1613 7.13188 32.3325 6.2381C28.0893 4.89744 15.9358 -0.155035 9.3372 5.45408C4.93812 9.19349 2.58696 14.0179 2.28374 19.9274C2.83684 22.1888 4.20884 24.8501 6.39975 27.9115C9.68611 32.5036 10.6401 31.5259 10.6401 29.6321C10.6401 27.7382 16.6734 32.7308 18.4184 25.9198C19.5818 21.3791 21.823 19.7434 25.142 21.0125C30.8764 21.6092 34.4549 21.2475 35.8774 19.9274C37.2999 18.6073 38.0058 17.5767 37.9951 16.8356Z" fill="url(#paint0_linear)"/>
<path d="M20.0808 24.3865C23.6421 24.3865 26.5292 21.5 26.5292 17.9393C26.5292 14.3787 23.6421 11.4922 20.0808 11.4922C16.5195 11.4922 13.6325 14.3787 13.6325 17.9393C13.6325 21.5 16.5195 24.3865 20.0808 24.3865Z" fill="white"/>
<path d="M20.0882 23.8716C23.3687 23.8716 26.0281 21.2128 26.0281 17.9329C26.0281 14.653 23.3687 11.9941 20.0882 11.9941C16.8077 11.9941 14.1483 14.653 14.1483 17.9329C14.1483 21.2128 16.8077 23.8716 20.0882 23.8716Z" fill="#FF6800"/>
<path d="M22.3276 18.0227L20.0806 19.4284L17.8321 18.0227L20.0806 14.0723L22.3276 18.0227ZM20.0799 19.8829L17.8321 18.4932L20.0799 21.8088L22.3276 18.4932L20.0799 19.8829Z" fill="white"/>
<path d="M7.45048 26.1686C7.92677 25.1232 8.39964 24.5537 8.84658 24.4424C9.26866 24.3372 9.73421 24.6434 10.2466 25.4148C11.491 27.2887 12.9297 27.2307 14.37 25.2702L14.4349 25.1818L14.1486 24.5741L13.9654 24.8236C13.3427 25.6711 12.7623 26.0956 12.2313 26.119C11.715 26.1418 11.1993 25.7839 10.6833 25.0153L10.6677 24.9919C10.0421 24.0499 9.39771 23.6329 8.74022 23.7934C8.10655 23.948 7.52625 24.6355 6.97901 25.8367L6.9334 25.9368L7.32262 26.4493L7.45048 26.1686ZM7.29341 25.8016L7.31434 25.9894C7.32456 25.9669 7.33479 25.9447 7.34502 25.9227L7.36037 25.8898L7.29341 25.8016ZM14.0548 25.2396L14.073 25.0521C14.0584 25.0719 14.0439 25.0914 14.0294 25.1108L14.0077 25.1396L14.0548 25.2396Z" fill="white"/>
<path d="M5.53483 19.0959C6.46511 17.054 7.30463 16.8267 8.30067 18.2971L8.3309 18.3421C9.57538 20.2161 11.014 20.158 12.4543 18.1975L12.5192 18.1091L12.233 17.5014L12.0497 17.7509C10.8309 19.4099 9.80419 19.4713 8.78298 17.9653L8.75204 17.9192C7.48556 16.0122 6.17085 16.3331 5.06336 18.764L5.01775 18.8641L5.40696 19.3766L5.53483 19.0959ZM5.37776 18.7289L5.39869 18.9167L5.4217 18.8665L5.44469 18.8171L5.37776 18.7289ZM8.41303 18.0753L8.44507 18.123C9.62568 19.9007 10.9711 19.8414 12.3467 17.9689L12.0315 17.9384L12.092 18.0669C10.8365 19.7271 9.73736 19.76 8.6702 18.1865L8.63787 18.1383C7.44716 16.3454 6.24679 16.6445 5.1995 18.9432L5.51389 18.9082L5.44469 18.8171C6.41797 16.7369 7.35699 16.5174 8.41303 18.0753ZM12.1391 18.1669L12.1573 17.9794L12.1246 18.0235L12.092 18.0669L12.1391 18.1669Z" fill="white"/>
<path d="M8.26163 12.0217C9.19192 9.97979 10.0314 9.75252 11.0275 11.2228L11.0577 11.2679C12.3022 13.1418 13.7408 13.0838 15.1811 11.1232L15.246 11.0349L14.9598 10.4272L14.7765 10.6766C13.5577 12.3356 12.531 12.397 11.5098 10.8911L11.4788 10.845C10.2124 8.93797 8.89766 9.25888 7.79017 11.6897L7.74455 11.7899L8.13377 12.3024L8.26163 12.0217ZM8.10456 11.6547L8.1255 11.8425L8.1485 11.7923L8.17149 11.7428L8.10456 11.6547ZM11.1398 11.001L11.1719 11.0488C12.3525 12.8265 13.6979 12.7671 15.0735 10.8947L14.7583 10.8642L14.8188 10.9927C13.5634 12.6528 12.4642 12.6858 11.397 11.1123L11.3647 11.0641C10.174 9.27119 8.97359 9.57026 7.9263 11.869L8.2407 11.834L8.17149 11.7428C9.14478 9.66268 10.0838 9.44319 11.1398 11.001ZM14.8659 11.0927L14.8841 10.9051L14.8514 10.9493L14.8188 10.9927L14.8659 11.0927Z" fill="white"/>
<path d="M13.4203 6.93819C13.8966 5.89276 14.3695 5.32325 14.8164 5.21189C15.2385 5.10673 15.7041 5.41291 16.2164 6.18439C17.4609 8.05829 18.8995 8.00024 20.3398 6.03971L20.4047 5.95136L20.1185 5.34364L19.9352 5.59311C19.3126 6.44065 18.7321 6.86514 18.2012 6.88858C17.6848 6.91137 17.1691 6.55345 16.6532 5.78489L16.6375 5.76147C16.0119 4.81948 15.3675 4.4024 14.7101 4.56288C14.0764 4.71756 13.4961 5.40508 12.9488 6.60623L12.9032 6.70636L13.2925 7.21884L13.4203 6.93819ZM13.2632 6.57119L13.2842 6.75895C13.2944 6.73651 13.3046 6.71428 13.3149 6.69225L13.3302 6.65936L13.2632 6.57119ZM20.0246 6.00914L20.0428 5.82162C20.0283 5.8414 20.0138 5.86097 19.9993 5.88033L19.9776 5.90919L20.0246 6.00914Z" fill="white"/>
<path d="M22.7053 9.59202C23.6355 7.5501 24.4751 7.32284 25.4711 8.79314L25.5013 8.83821C26.7458 10.7121 28.1844 10.6541 29.6247 8.69353L29.6896 8.60519L29.4034 7.99747L29.2201 8.24694C28.0013 9.90595 26.9746 9.96732 25.9534 8.46141L25.9225 8.4153C24.656 6.50828 23.3413 6.82919 22.2338 9.26006L22.1882 9.36019L22.5774 9.87267L22.7053 9.59202ZM22.5482 9.22502L22.5691 9.41277L22.5921 9.36261L22.6151 9.31314L22.5482 9.22502ZM25.5835 8.57133L25.6155 8.61908C26.7961 10.3968 28.1415 10.3374 29.5171 8.46503L29.2019 8.43446L29.2625 8.56302C28.007 10.2231 26.9078 10.2561 25.8406 8.6826L25.8083 8.63443C24.6176 6.8415 23.4172 7.14057 22.3699 9.4393L22.6843 9.40426L22.6151 9.31314C23.5884 7.233 24.5274 7.0135 25.5835 8.57133ZM29.3095 8.66297L29.3277 8.47544L29.2951 8.5196L29.2625 8.56302L29.3095 8.66297Z" fill="white"/>
<path d="M27.569 15.2624C28.0453 14.217 28.5181 13.6475 28.9651 13.5361C29.3871 13.431 29.8527 13.7371 30.365 14.5086C31.6095 16.3825 33.0481 16.3245 34.4884 14.3639L34.5533 14.2756L34.2671 13.6679L34.0838 13.9173C33.4612 14.7649 32.8807 15.1894 32.3498 15.2128C31.8334 15.2356 31.3177 14.8777 30.8018 14.1091L30.7862 14.0857C30.1606 13.1437 29.5162 12.7266 28.8587 12.8871C28.225 13.0418 27.6447 13.7293 27.0975 14.9305L27.0519 15.0306L27.4411 15.5431L27.569 15.2624ZM27.4119 14.8954L27.4328 15.0832C27.443 15.0607 27.4533 15.0385 27.4635 15.0165L27.4789 14.9836L27.4119 14.8954ZM34.1732 14.3334L34.1914 14.1458C34.1769 14.1656 34.1624 14.1852 34.1479 14.2045L34.1262 14.2334L34.1732 14.3334Z" fill="white"/>
<defs>
<linearGradient id="paint0_linear" x1="8.25309" y1="17.0387" x2="28.6709" y2="10.5243" gradientUnits="userSpaceOnUse">
<stop stop-color="#FF9900"/>
<stop offset="1" stop-color="#FFC700"/>
</linearGradient>
</defs>
</svg>
